<svg xmlns="http://www.w3.org/2000/svg" width="720" height="296" viewBox="0 0 720 296" font-family="Inter, -apple-system, Segoe UI, Helvetica, Arial, sans-serif">
<rect width="720" height="296" rx="10" fill="#fbfbfa"/>
<text x="24" y="32" font-size="16" fill="#1d1d1f" text-anchor="start" font-weight="600">On a large checkout (10,000 files searched)</text>
<text x="24" y="52" font-size="12" fill="#6b6b70" text-anchor="start">Tokens pulled to answer one question about the code (log scale)</text>
<line x1="411.21881413126977" x2="411.21881413126977" y1="70" y2="256" stroke="#e4e4e2"/><text x="411.21881413126977" y="272" font-size="11" fill="#6b6b70" text-anchor="middle">1k</text><line x1="464.958418841693" x2="464.958418841693" y1="70" y2="256" stroke="#e4e4e2"/><text x="464.958418841693" y="272" font-size="11" fill="#6b6b70" text-anchor="middle">10k</text><line x1="518.6980235521163" x2="518.6980235521163" y1="70" y2="256" stroke="#e4e4e2"/><text x="518.6980235521163" y="272" font-size="11" fill="#6b6b70" text-anchor="middle">100k</text><line x1="572.4376282625395" x2="572.4376282625395" y1="70" y2="256" stroke="#e4e4e2"/><text x="572.4376282625395" y="272" font-size="11" fill="#6b6b70" text-anchor="middle">1M</text><text x="240" y="100" font-size="12" fill="#1d1d1f" text-anchor="end">Read all 428 matching files</text><rect x="250" y="86" width="359.65194713126357" height="22" rx="3" fill="#d9822b"/><text x="617.6519471312636" y="102" font-size="12" fill="#1d1d1f" text-anchor="start" font-weight="600">4,925,988</text><text x="240" y="144" font-size="12" fill="#1d1d1f" text-anchor="end">grep + read, capped at 6 files</text><rect x="250" y="130" width="229.27192558276747" height="22" rx="3" fill="#d9822b"/><text x="487.2719255827675" y="146" font-size="12" fill="#1d1d1f" text-anchor="start" font-weight="600">18,465</text><text x="240" y="188" font-size="12" fill="#1d1d1f" text-anchor="end">Sequence, first question</text><rect x="250" y="174" width="176.03868703637548" height="22" rx="3" fill="#2f6fd6"/><text x="434.03868703637545" y="190" font-size="12" fill="#1d1d1f" text-anchor="start" font-weight="600">1,887</text><text x="240" y="232" font-size="12" fill="#1d1d1f" text-anchor="end">Sequence, follow-up</text><rect x="250" y="218" width="159.49999124434294" height="22" rx="3" fill="#2f6fd6"/><text x="417.49999124434294" y="234" font-size="12" fill="#1d1d1f" text-anchor="start" font-weight="600">929</text>
</svg>
