<svg xmlns="http://www.w3.org/2000/svg" width="720" height="370" viewBox="0 0 720 370" font-family="Inter, -apple-system, Segoe UI, Helvetica, Arial, sans-serif">
<rect width="720" height="370" rx="10" fill="#fbfbfa"/>
<text x="24" y="32" font-size="16" fill="#1d1d1f" text-anchor="start" font-weight="600">Finding the files a real fix touched</text>
<text x="24" y="52" font-size="12" fill="#6b6b70" text-anchor="start">Commit message as the question; share of commits with a changed file in the top 5</text>
<line x1="70" x2="680" y1="290" y2="290" stroke="#e4e4e2"/><text x="62" y="294" font-size="11" fill="#6b6b70" text-anchor="end">0%</text><line x1="70" x2="680" y1="237.5" y2="237.5" stroke="#e4e4e2"/><text x="62" y="241.5" font-size="11" fill="#6b6b70" text-anchor="end">25%</text><line x1="70" x2="680" y1="185" y2="185" stroke="#e4e4e2"/><text x="62" y="189" font-size="11" fill="#6b6b70" text-anchor="end">50%</text><line x1="70" x2="680" y1="132.5" y2="132.5" stroke="#e4e4e2"/><text x="62" y="136.5" font-size="11" fill="#6b6b70" text-anchor="end">75%</text><line x1="70" x2="680" y1="80" y2="80" stroke="#e4e4e2"/><text x="62" y="84" font-size="11" fill="#6b6b70" text-anchor="end">100%</text><rect x="134.5" y="155.6" width="34" height="134.4" rx="3" fill="#d9822b"/><text x="151.5" y="149.6" font-size="11" fill="#1d1d1f" text-anchor="middle" font-weight="600">64%</text><rect x="178.5" y="283.7" width="34" height="6.3" rx="3" fill="#9a9aa0"/><text x="195.5" y="277.7" font-size="11" fill="#1d1d1f" text-anchor="middle" font-weight="600">3%</text><rect x="222.5" y="214.4" width="34" height="75.6" rx="3" fill="#c9a27a"/><text x="239.5" y="208.4" font-size="11" fill="#1d1d1f" text-anchor="middle" font-weight="600">36%</text><rect x="266.5" y="178.7" width="34" height="111.3" rx="3" fill="#2f6fd6"/><text x="283.5" y="172.7" font-size="11" fill="#1d1d1f" text-anchor="middle" font-weight="600">53%</text><text x="217.5" y="310" font-size="12" fill="#1d1d1f" text-anchor="middle">codeforge, 194 commits</text><rect x="439.5" y="243.8" width="34" height="46.2" rx="3" fill="#d9822b"/><text x="456.5" y="237.8" font-size="11" fill="#1d1d1f" text-anchor="middle" font-weight="600">22%</text><rect x="483.5" y="271.1" width="34" height="18.9" rx="3" fill="#9a9aa0"/><text x="500.5" y="265.1" font-size="11" fill="#1d1d1f" text-anchor="middle" font-weight="600">9%</text><rect x="527.5" y="258.5" width="34" height="31.5" rx="3" fill="#c9a27a"/><text x="544.5" y="252.5" font-size="11" fill="#1d1d1f" text-anchor="middle" font-weight="600">15%</text><rect x="571.5" y="256.4" width="34" height="33.6" rx="3" fill="#2f6fd6"/><text x="588.5" y="250.39999999999998" font-size="11" fill="#1d1d1f" text-anchor="middle" font-weight="600">16%</text><text x="522.5" y="310" font-size="12" fill="#1d1d1f" text-anchor="middle">ml-harness, 150 commits</text><rect x="70" y="336" width="12" height="10" fill="#d9822b"/><text x="88" y="345" font-size="11" fill="#1d1d1f" text-anchor="start">grep over contents</text><rect x="230" y="336" width="12" height="10" fill="#9a9aa0"/><text x="248" y="345" font-size="11" fill="#1d1d1f" text-anchor="start">Sequence today</text><rect x="390" y="336" width="12" height="10" fill="#c9a27a"/><text x="408" y="345" font-size="11" fill="#1d1d1f" text-anchor="start">grep + path words</text><rect x="550" y="336" width="12" height="10" fill="#2f6fd6"/><text x="568" y="345" font-size="11" fill="#1d1d1f" text-anchor="start">+ one hop on the map</text>
</svg>
